<svg width="270" height="148" viewBox="0 0 270 148" fill="none" xmlns="http://www.w3.org/2000/svg">
<path d="M160.548 88.2757C144.579 88.2757 129.971 81.8063 120.381 73.957C103.053 59.7483 94.9538 41.2999 97.5735 21.9717C98.2835 16.7821 103.073 13.1524 108.243 13.8424C113.442 14.5523 117.072 19.3119 116.372 24.5114C114.702 36.8603 120.012 46.6194 126.441 53.6388L145.589 28.4911C145.639 28.4111 145.699 28.3411 145.769 28.2811C159.688 11.0526 175.527 1.60348 192.825 0.183606C217.953 -1.88621 236.401 14.2123 237.171 14.9023C240.981 18.272 241.431 24.0615 238.211 27.9911L209.213 63.318C194.135 81.6963 176.646 88.2657 160.558 88.2657L160.548 88.2757ZM141.63 65.0078C155.378 71.4172 176.476 73.297 194.535 51.299L216.863 24.0915C211.333 21.2117 203.294 18.302 194.175 19.1019C182.336 20.1418 171.037 27.2012 160.588 40.09L141.62 65.0078H141.63Z" fill="url(#paint0_linear_1_97)"/>
<path d="M56.0872 145.671C48.8179 145.671 40.8486 143.861 32.0993 139.511C31.8694 139.401 31.6594 139.281 31.4394 139.141L4.60185 123.023C0.292233 120.433 -1.25763 114.933 1.10216 110.484C1.39213 109.944 8.28151 97.0149 20.9004 86.9458C38.4788 72.947 59.1769 70.9572 79.1852 81.3763C79.4051 81.4863 79.6151 81.6063 79.8151 81.7463L97.6535 92.8553C100.183 89.4956 105.723 82.0262 109.502 76.8067C112.502 79.8864 120.241 85.2459 124.871 87.9157C118.792 96.3249 112.442 104.754 108.383 110.084L107.753 110.914C97.8235 123.932 81.265 145.661 56.0872 145.661V145.671ZM40.8586 122.703C60.4468 132.262 73.1657 123.193 85.9546 107.914L70.1059 98.0548C56.8671 91.2654 44.7482 92.4053 33.1193 101.494C28.8697 104.804 25.42 108.644 22.8802 111.904L40.8586 122.713V122.703Z" fill="url(#paint1_linear_1_97)"/>
<path d="M179.246 148C165.958 148 152.149 145.05 138.02 138.951C125.021 133.331 110.542 124.102 110.542 124.102C115.082 119.183 122.601 108.634 122.601 108.634C122.601 108.634 132.151 115.213 145.579 121.573C185.616 140.521 222.842 125.312 251.89 80.3162C254.74 75.9166 260.599 74.6567 264.999 77.4865C269.398 80.3262 270.668 86.1957 267.828 90.5953C251.86 115.333 233.381 132.312 212.913 141.071C202.114 145.7 190.865 148 179.256 148H179.246Z" fill="url(#paint2_linear_1_97)"/>
<defs>
<linearGradient id="paint0_linear_1_97" x1="168.724" y1="0" x2="168.724" y2="88.2757" gradientUnits="userSpaceOnUse">
<stop stop-color="#ED3E4D"/>
<stop offset="1" stop-color="#921EA3"/>
</linearGradient>
<linearGradient id="paint1_linear_1_97" x1="62.4355" y1="74.7852" x2="62.4355" y2="145.671" gradientUnits="userSpaceOnUse">
<stop stop-color="#ED3E4D"/>
<stop offset="1" stop-color="#921EA3"/>
</linearGradient>
<linearGradient id="paint2_linear_1_97" x1="189.943" y1="75.9761" x2="189.943" y2="148" gradientUnits="userSpaceOnUse">
<stop stop-color="#ED3E4D"/>
<stop offset="1" stop-color="#921EA3"/>
</linearGradient>
</defs>
</svg>
