<?xml version="1.0" encoding="UTF-8"?>
<svg id="Layer_2" data-name="Layer 2" xmlns="http://www.w3.org/2000/svg" xmlns:xlink="http://www.w3.org/1999/xlink" viewBox="0 0 229.98 135.03">
  <defs>
    <style>
      .cls-1 {
        fill: url(#linear-gradient-2);
      }

      .cls-2 {
        fill: url(#linear-gradient-3);
      }

      .cls-3 {
        fill: url(#linear-gradient);
      }
    </style>
    <linearGradient id="linear-gradient" x1="155.24" y1="0" x2="155.24" y2="87.25" gradientUnits="userSpaceOnUse">
      <stop offset="0" stop-color="#e13123"/>
      <stop offset="1" stop-color="#911ea5"/>
    </linearGradient>
    <linearGradient id="linear-gradient-2" x1="53.86" y1="69.34" x2="53.86" y2="131.93" xlink:href="#linear-gradient"/>
    <linearGradient id="linear-gradient-3" x1="162.9" y1="84.84" x2="162.9" y2="135.03" xlink:href="#linear-gradient"/>
  </defs>
  <g id="Layer_1-2" data-name="Layer 1">
    <g>
      <path class="cls-3" d="M96.62,33.12c.24-10.59,4.55-21.5,13.4-30.49,3.15-3.2,7.83-3.47,11.11-.84,3.59,2.88,4.22,7.86,1.44,11.55-.55,.72-1.19,1.36-1.79,2.05-8.67,9.98-10.05,24.16-3.4,35.01,.08,.13,.16,.26,.24,.38,1.24,1.95,1.32,1.98,2.93,.36,5.35-5.34,10.68-10.69,16.02-16.04,5.3-5.31,11.35-9.48,18.39-12.15,9.27-3.51,18.77-4.49,28.51-2.56,10.52,2.09,19.56,7,27.25,14.43,.38,.37,.76,.74,1.12,1.13,2.66,2.88,2.7,6.27,0,9.1-2.4,2.51-4.9,4.93-7.37,7.38-7.03,6.97-14.09,13.92-21.08,20.92-2.79,2.8-5.87,5.24-9.26,7.18-6.17,3.53-12.77,5.83-19.96,6.51-8.66,.82-16.88-.67-24.74-4.16-4.51-2-8.56-4.81-12.17-8.17-2.65-2.47-5.22-5.03-7.74-7.63-8.34-8.59-12.91-19.97-12.9-33.95Zm52.34,37.72c2.23-.05,3.82,.01,5.39-.25,6.99-1.18,12.95-4.33,17.94-9.34,6.02-6.05,12.05-12.09,18.08-18.13,.37-.37,.75-.75,1.09-1.15,.43-.5,.36-.96-.2-1.33-.32-.21-.64-.4-.97-.58-5.25-2.77-10.88-4.22-16.77-4.1-9.7,.21-18.09,3.79-25.04,10.59-4.97,4.86-9.87,9.79-14.79,14.69-.7,.69-1.41,1.36-2.08,2.09-.98,1.06-.99,1.26,.24,2.09,1.43,.96,2.91,1.88,4.44,2.67,4.18,2.13,8.71,2.64,12.67,2.76Z"/>
      <path class="cls-1" d="M43.43,131.92c-12.74-.14-23.7-4.72-32.98-13.37-2.82-2.63-5.5-5.4-8.21-8.14-2.89-2.93-3.02-6.32-.17-9.21,4.19-4.25,8.29-8.6,12.76-12.56,17.57-15.59,44.26-17.16,63.45-3.7,1.17,.82,2.28,1.74,3.4,2.64,1.3,1.04,1.32,1.06,2.55-.17,4.66-4.64,9.3-9.3,13.95-13.95,1.07-1.07,2.13-2.15,3.22-3.2,1.31-1.26,1.45-1.25,2.65,.14,4.56,5.25,4.92,13.48,.86,19.42-.68,1-1.47,1.92-2.33,2.77-8.7,8.62-17.34,17.29-26.09,25.85-2.52,2.46-5.39,4.48-8.38,6.42-4.33,2.8-8.96,4.63-13.87,5.88-3.53,.89-7.14,1.28-10.8,1.18Zm.36-16.29c6.56-.16,12.98-2.13,18.59-6.59,2.73-2.18,5.09-4.72,7.55-7.17,1.41-1.4,1.41-1.52-.2-2.7-5.76-4.23-12.21-6.61-19.36-6.74-11.31-.21-20.66,4.24-28.43,12.31-.76,.79-.74,1.32,.04,2.04,2.92,2.72,6.13,4.96,9.84,6.49,3.68,1.51,7.5,2.24,11.98,2.36Z"/>
      <path class="cls-2" d="M147.63,135.01c-7.26,.19-15.26-.92-23.13-2.83-7.27-1.76-14.31-4.28-20.99-7.7-6.88-3.52-9.52-11.03-6.37-17.88,.13-.27,.25-.55,.4-.81,1.6-2.86,1.7-2.86,4.51-1.1,2.68,1.67,5.31,3.48,8.14,4.87,3.1,1.52,6.4,2.63,9.63,3.89,4.35,1.7,8.89,2.75,13.45,3.64,8.87,1.73,17.79,1.88,26.73,.58,8.89-1.29,17.33-3.96,25.4-7.96,9.06-4.49,17.16-10.34,24.68-17.03,1.97-1.76,3.86-3.61,5.79-5.42,3.41-3.2,8.12-3.25,11.41-.11,3.38,3.22,3.64,8.12,.46,11.59-3.48,3.79-7.41,7.12-11.39,10.36-11.47,9.35-24.14,16.58-38.23,21.19-9.61,3.15-19.49,4.75-30.49,4.71Z"/>
    </g>
  </g>
</svg>