<?xml version="1.0" encoding="UTF-8"?>
<svg id="Layer_2" data-name="Layer 2" xmlns="http://www.w3.org/2000/svg" viewBox="0 0 150.31 32.5">
  <defs>
    <style>
      .cls-1 {
        fill: #f7f8f9;
      }
    </style>
  </defs>
  <g id="Layer_1-2" data-name="Layer 1">
    <g>
      <path class="cls-1" d="M119.82,16.25c0-4.8,0-9.61,0-14.41,0-.24,0-.47,0-.71,.02-1.02,.11-1.12,1.15-1.12,5.09,0,10.17-.02,15.26,.03,1.89,.02,3.75,.34,5.56,.9,4.01,1.24,6.56,3.9,7.67,7.95,.41,1.51,.64,3.04,.75,4.59,.22,3.01,.12,6.02-.5,8.99-.4,1.91-1.08,3.7-2.29,5.26-1.69,2.19-3.98,3.42-6.6,4.08-1.74,.43-3.51,.68-5.31,.68-4.8,0-9.61,0-14.41,0-1.23,0-1.28-.05-1.28-1.27,0-4.99,0-9.98,0-14.97Zm8.11-.02c0,2.64,0,5.27,0,7.91,0,.38,0,.75,.04,1.13,.02,.26,.2,.43,.46,.47,.23,.04,.47,.04,.7,.03,1.55,0,3.11-.03,4.66-.03,.95,0,1.88-.15,2.79-.37,2.79-.66,4.53-2.38,5.18-5.18,.53-2.28,.45-4.58,.21-6.88-.07-.65-.26-1.29-.47-1.92-.59-1.8-1.78-3.07-3.53-3.81-1.01-.42-2.06-.72-3.14-.76-2.02-.08-4.05-.08-6.07-.08-.66,0-.79,.17-.82,.87-.02,.33,0,.66,0,.99,0,2.54,0,5.09,0,7.63Z"/>
      <path class="cls-1" d="M37.86,16.23c0-4.81,0-9.61,0-14.42,0-.38,0-.75,.02-1.13,.03-.46,.24-.64,.73-.67,.28-.02,.57,0,.85,0,7.77,0,15.55,0,23.32,0,1.55,0,1.67-.11,1.65,1.62-.02,1.41,0,2.83-.01,4.24-.01,.67-.2,.84-.84,.87-.33,.01-.66,0-.99,0-4.99,0-9.99,0-14.98,0-1.65,0-1.65,0-1.66,1.62,0,1.22,0,2.45,.02,3.67,.01,.56,.22,.76,.77,.8,.37,.03,.75,.02,1.13,.02,3.44,0,6.88,0,10.32,0,.33,0,.66-.01,.99,.01,.39,.03,.61,.23,.61,.64,.02,1.04,.02,2.07,.02,3.11,0,.75,.01,1.51-.01,2.26-.02,.57-.2,.73-.79,.75-.33,.02-.66,0-.99,0-3.44,0-6.88,0-10.32,0-1.74,0-1.74,0-1.74,1.7,0,1.18-.01,2.36,0,3.53,.01,.7,.16,.85,.81,.88,.42,.02,.85,.01,1.27,.01,4.9,0,9.8,0,14.7,0,1.67,0,1.67,0,1.68,1.63,0,1.41,.01,2.83,0,4.24,0,.68-.17,.83-.83,.86-.28,.01-.57,0-.85,0-7.73,0-15.45,0-23.18,0-.38,0-.76,.02-1.13-.02-.31-.03-.52-.23-.54-.55-.03-.42-.03-.85-.03-1.27,0-4.81,0-9.61,0-14.42Z"/>
      <path class="cls-1" d="M92.12,0c.94,0,1.88,0,2.83,0,1.53-.02,1.45,0,1.94,1.3,.75,1.98,1.5,3.96,2.25,5.94,2.96,7.84,5.93,15.68,8.89,23.52q.65,1.72-1.12,1.72c-1.84,0-3.67-.02-5.51,.01-.67,.01-1.04-.24-1.26-.87-.41-1.2-.88-2.38-1.33-3.58-.12-.31-.23-.62-.35-.92-.16-.4-.46-.58-.88-.57-.24,0-.47,0-.71,0-3.2,0-6.4,0-9.61,0-.24,0-.47,0-.71,0-.43,0-.7,.21-.85,.61-.36,.97-.72,1.94-1.09,2.91-.22,.57-.44,1.14-.65,1.72-.16,.45-.44,.69-.94,.68-2.21-.01-4.43,0-6.64-.01-.58,0-.75-.26-.54-.84,.5-1.37,1.02-2.74,1.54-4.1,2.55-6.74,5.1-13.47,7.65-20.21,.75-1.98,1.49-3.97,2.23-5.95,.08-.22,.18-.44,.25-.66,.17-.51,.51-.74,1.06-.73,.85,.03,1.69,0,2.54,0,.33,0,.66,0,.99,0Zm-.07,19.76h0c.94,0,1.88,.02,2.82,0,.53-.01,.7-.24,.53-.72-.35-.97-.73-1.94-1.1-2.91-.62-1.63-1.24-3.26-1.86-4.88-.06-.16-.14-.37-.36-.36-.22,.01-.29,.22-.35,.4-.69,1.8-1.38,3.61-2.06,5.41-.3,.79-.6,1.58-.89,2.38-.14,.4,.03,.66,.44,.67,.94,.02,1.88,0,2.82,0Z"/>
      <path class="cls-1" d="M0,16.22c0-4.85,0-9.71,0-14.56C0-.03,0,0,1.61,0,3.5,.02,5.38,0,7.27,.01c.75,0,.89,.16,.92,.92,.01,.33,0,.66,0,.99,0,7.3,0,14.61,0,21.91,0,2.01,0,1.92,1.95,1.92,4.95,0,9.9,0,14.84,0,1.61,0,1.61,0,1.61,1.68,0,1.32,0,2.64,0,3.96,0,1.03-.06,1.08-1.15,1.09-.19,0-.38,0-.57,0-7.73,0-15.46,0-23.18,0-.38,0-.76,0-1.13-.03-.31-.03-.51-.23-.54-.55-.02-.38-.03-.75-.03-1.13,0-4.85,0-9.71,0-14.56Z"/>
    </g>
  </g>
</svg>